<svg xmlns="http://www.w3.org/2000/svg" width="160" height="220" fill="none" class="jsx-2180138831" viewBox="0 0 1250 1794"><rect width="1250" height="1794" fill="#fff" class="jsx-2180138831" rx="73"/><rect width="1250" height="1794" fill="url(#ipad-gradient-1)" fill-opacity=".06" class="jsx-2180138831" rx="73"/><rect width="1235" height="1779" x="7.5" y="7.5" fill="#FCFCFC" stroke="#F6F6F6" class="jsx-2180138831" rx="66.5"/><mask id="ipad-mask-1" width="1154" height="1536" x="48" y="129" class="jsx-2180138831" maskUnits="userSpaceOnUse" masktype="alpha"><mask id="ipad-mask-2" fill="#fff" class="jsx-2180138831" masktype="luminance"><rect width="1154" height="1536" x="48" y="129" class="jsx-2180138831" rx="3"/></mask><rect width="1154" height="1536" x="48" y="129" fill="#fff" stroke="#fff" stroke-width="8" class="jsx-2180138831" mask="url(#ipad-mask-2)" rx="3"/></mask><g class="jsx-2180138831" mask="url(#ipad-mask-1)"><rect width="928" height="1455" x="274" y="210" fill="#F6F6F6" class="jsx-2180138831"/><rect width="225" height="1533" x="49" y="132" fill="#fff" class="jsx-2180138831"/><rect width="1153" height="78.169" x="49" y="132" fill="#007AFF" class="jsx-2180138831"/><rect width="254.494" height="310.678" x="313.822" y="250.254" fill="#fff" stroke="#CBCBCB" stroke-width="2" class="jsx-2180138831" rx="6"/><path fill="#EAEAEA" d="M315.466 256.045C315.466 253.836 317.257 252.045 319.466 252.045H562.671C564.881 252.045 566.671 253.836 566.671 256.045V461.428H315.466V256.045Z" class="jsx-2180138831"/><rect width="153.367" height="19.542" x="336.62" y="486.554" fill="#CFCFCF" class="jsx-2180138831" rx="3"/><rect width="89.905" height="19.542" x="336.62" y="517.263" fill="#CFCFCF" class="jsx-2180138831" rx="3"/><rect width="254.494" height="310.678" x="609.4" y="250.254" fill="#fff" stroke="#CBCBCB" stroke-width="2" class="jsx-2180138831" rx="6"/><path fill="#EAEAEA" d="M611.045 256.045C611.045 253.836 612.836 252.045 615.045 252.045H858.25C860.459 252.045 862.25 253.836 862.25 256.045V461.428H611.045V256.045Z" class="jsx-2180138831"/><rect width="153.367" height="19.542" x="632.198" y="486.554" fill="#CFCFCF" class="jsx-2180138831" rx="3"/><rect width="89.905" height="19.542" x="632.198" y="517.263" fill="#CFCFCF" class="jsx-2180138831" rx="3"/><rect width="254.494" height="310.678" x="904.979" y="250.254" fill="#fff" stroke="#CBCBCB" stroke-width="2" class="jsx-2180138831" rx="6"/><path fill="#EAEAEA" d="M906.623 256.045C906.623 253.836 908.414 252.045 910.623 252.045H1153.83C1156.04 252.045 1157.83 253.836 1157.83 256.045V461.428H906.623V256.045Z" class="jsx-2180138831"/><rect width="153.367" height="19.542" x="927.777" y="486.554" fill="#CFCFCF" class="jsx-2180138831" rx="3"/><rect width="89.905" height="19.542" x="927.777" y="517.263" fill="#CFCFCF" class="jsx-2180138831" rx="3"/><rect width="254.494" height="310.678" x="313.822" y="602.017" fill="#fff" stroke="#CBCBCB" stroke-width="2" class="jsx-2180138831" rx="6"/><path fill="#EAEAEA" d="M315.466 607.808C315.466 605.599 317.257 603.808 319.466 603.808H562.671C564.881 603.808 566.671 605.599 566.671 607.808V813.191H315.466V607.808Z" class="jsx-2180138831"/><rect width="153.367" height="19.542" x="336.62" y="838.316" fill="#CFCFCF" class="jsx-2180138831" rx="3"/><rect width="89.905" height="19.542" x="336.62" y="869.026" fill="#CFCFCF" class="jsx-2180138831" rx="3"/><rect width="254.494" height="310.678" x="609.4" y="602.017" fill="#fff" stroke="#CBCBCB" stroke-width="2" class="jsx-2180138831" rx="6"/><path fill="#EAEAEA" d="M611.045 607.808C611.045 605.599 612.836 603.808 615.045 603.808H858.25C860.459 603.808 862.25 605.599 862.25 607.808V813.191H611.045V607.808Z" class="jsx-2180138831"/><rect width="153.367" height="19.542" x="632.198" y="838.316" fill="#CFCFCF" class="jsx-2180138831" rx="3"/><rect width="89.905" height="19.542" x="632.198" y="869.026" fill="#CFCFCF" class="jsx-2180138831" rx="3"/><rect width="254.494" height="310.678" x="904.979" y="602.017" fill="#fff" stroke="#CBCBCB" stroke-width="2" class="jsx-2180138831" rx="6"/><path fill="#EAEAEA" d="M906.623 607.808C906.623 605.599 908.414 603.808 910.623 603.808H1153.83C1156.04 603.808 1157.83 605.599 1157.83 607.808V813.191H906.623V607.808Z" class="jsx-2180138831"/><rect width="153.367" height="19.542" x="927.777" y="838.316" fill="#CFCFCF" class="jsx-2180138831" rx="3"/><rect width="89.905" height="19.542" x="927.777" y="869.026" fill="#CFCFCF" class="jsx-2180138831" rx="3"/><rect width="254.494" height="310.678" x="313.822" y="954.254" fill="#fff" stroke="#CBCBCB" stroke-width="2" class="jsx-2180138831" rx="6"/><path fill="#EAEAEA" d="M315.466 960.045C315.466 957.836 317.257 956.045 319.466 956.045H562.671C564.881 956.045 566.671 957.836 566.671 960.045V1165.43H315.466V960.045Z" class="jsx-2180138831"/><rect width="153.367" height="19.542" x="336.62" y="1190.55" fill="#CFCFCF" class="jsx-2180138831" rx="3"/><rect width="89.905" height="19.542" x="336.62" y="1221.26" fill="#CFCFCF" class="jsx-2180138831" rx="3"/><rect width="254.494" height="310.678" x="609.4" y="954.254" fill="#fff" stroke="#CBCBCB" stroke-width="2" class="jsx-2180138831" rx="6"/><path fill="#EAEAEA" d="M611.045 960.045C611.045 957.836 612.836 956.045 615.045 956.045H858.25C860.459 956.045 862.25 957.836 862.25 960.045V1165.43H611.045V960.045Z" class="jsx-2180138831"/><rect width="153.367" height="19.542" x="632.198" y="1190.55" fill="#CFCFCF" class="jsx-2180138831" rx="3"/><rect width="89.905" height="19.542" x="632.198" y="1221.26" fill="#CFCFCF" class="jsx-2180138831" rx="3"/><rect width="254.494" height="310.678" x="904.979" y="954.254" fill="#fff" stroke="#CBCBCB" stroke-width="2" class="jsx-2180138831" rx="6"/><path fill="#EAEAEA" d="M906.623 960.045C906.623 957.836 908.414 956.045 910.623 956.045H1153.83C1156.04 956.045 1157.83 957.836 1157.83 960.045V1165.43H906.623V960.045Z" class="jsx-2180138831"/><rect width="153.367" height="19.542" x="927.777" y="1190.55" fill="#CFCFCF" class="jsx-2180138831" rx="3"/><rect width="89.905" height="19.542" x="927.777" y="1221.26" fill="#CFCFCF" class="jsx-2180138831" rx="3"/><rect width="254.494" height="310.678" x="313.822" y="1306.02" fill="#fff" stroke="#CBCBCB" stroke-width="2" class="jsx-2180138831" rx="6"/><path fill="#EAEAEA" d="M315.466 1311.81C315.466 1309.6 317.257 1307.81 319.466 1307.81H562.671C564.881 1307.81 566.671 1309.6 566.671 1311.81V1517.19H315.466V1311.81Z" class="jsx-2180138831"/><rect width="153.367" height="19.542" x="336.62" y="1542.32" fill="#CFCFCF" class="jsx-2180138831" rx="3"/><rect width="89.905" height="19.542" x="336.62" y="1573.03" fill="#CFCFCF" class="jsx-2180138831" rx="3"/><rect width="254.494" height="310.678" x="609.4" y="1306.02" fill="#fff" stroke="#CBCBCB" stroke-width="2" class="jsx-2180138831" rx="6"/><path fill="#EAEAEA" d="M611.045 1311.81C611.045 1309.6 612.836 1307.81 615.045 1307.81H858.25C860.459 1307.81 862.25 1309.6 862.25 1311.81V1517.19H611.045V1311.81Z" class="jsx-2180138831"/><rect width="153.367" height="19.542" x="632.198" y="1542.32" fill="#CFCFCF" class="jsx-2180138831" rx="3"/><rect width="89.905" height="19.542" x="632.198" y="1573.03" fill="#CFCFCF" class="jsx-2180138831" rx="3"/><rect width="254.494" height="310.678" x="904.979" y="1306.02" fill="#fff" stroke="#CBCBCB" stroke-width="2" class="jsx-2180138831" rx="6"/><path fill="#EAEAEA" d="M906.623 1311.81C906.623 1309.6 908.414 1307.81 910.623 1307.81H1153.83C1156.04 1307.81 1157.83 1309.6 1157.83 1311.81V1517.19H906.623V1311.81Z" class="jsx-2180138831"/><rect width="153.367" height="19.542" x="927.777" y="1542.32" fill="#CFCFCF" class="jsx-2180138831" rx="3"/><rect width="89.905" height="19.542" x="927.777" y="1573.03" fill="#CFCFCF" class="jsx-2180138831" rx="3"/><rect width="146.568" height="39.085" x="78.314" y="151.542" fill="#EAEAEA" class="jsx-2180138831" rx="4"/><rect width="166.11" height="24.428" x="78.314" y="278.568" fill="#CFCFCF" class="jsx-2180138831" rx="3"/><rect width="68.398" height="14.657" x="78.314" y="244.369" fill="#EAEAEA" class="jsx-2180138831" rx="3"/><rect width="68.398" height="14.657" x="78.314" y="537.504" fill="#EAEAEA" class="jsx-2180138831" rx="3"/><rect width="166.11" height="24.428" x="78.314" y="322.538" fill="#CFCFCF" class="jsx-2180138831" rx="3"/><rect width="166.11" height="24.428" x="78.314" y="366.508" fill="#CFCFCF" class="jsx-2180138831" rx="3"/><rect width="166.11" height="24.428" x="78.314" y="410.479" fill="#CFCFCF" class="jsx-2180138831" rx="3"/><rect width="166.11" height="24.428" x="78.314" y="454.449" fill="#CFCFCF" class="jsx-2180138831" rx="3"/><rect width="166.11" height="63.513" x="78.314" y="571.703" fill="#CFCFCF" class="jsx-2180138831" rx="3"/><rect width="68.398" height="14.657" x="78.314" y="693.843" fill="#EAEAEA" class="jsx-2180138831" rx="3"/><rect width="166.11" height="85.498" x="78.314" y="728.042" fill="#CFCFCF" class="jsx-2180138831" rx="3"/><circle cx="1158.03" cy="171.085" r="19.542" fill="#EAEAEA" class="jsx-2180138831"/><mask id="ipad-mask-3" fill="#fff" class="jsx-2180138831"><rect width="1154" height="1536" x="48" y="129" class="jsx-2180138831" rx="3"/></mask><rect width="1154" height="1536" x="48" y="129" stroke="#F5F5F5" stroke-width="8" class="jsx-2180138831" mask="url(#ipad-mask-3)" rx="3"/></g><g class="jsx-2180138831" opacity=".5"><g class="jsx-2180138831" filter="url(#ipad-filter-1)"><path fill="#fff" fill-rule="evenodd" d="M625 1767C645.987 1767 663 1749.99 663 1729C663 1708.01 645.987 1691 625 1691C604.013 1691 587 1708.01 587 1729C587 1749.99 604.013 1767 625 1767Z" class="jsx-2180138831" clip-rule="evenodd"/></g><path stroke="url(#ipad-gradient-2)" stroke-opacity=".297" stroke-width="4" d="M661 1729C661 1748.88 644.882 1765 625 1765C605.118 1765 589 1748.88 589 1729C589 1709.12 605.118 1693 625 1693C644.882 1693 661 1709.12 661 1729Z" class="jsx-2180138831"/></g><g class="jsx-2180138831" filter="url(#ipad-filter-2)"><path fill="#F5F5F5" fill-rule="evenodd" d="M625 79C630.523 79 635 74.5228 635 69C635 63.4772 630.523 59 625 59C619.477 59 615 63.4772 615 69C615 74.5228 619.477 79 625 79Z" class="jsx-2180138831" clip-rule="evenodd"/></g><path fill="#fff" fill-rule="evenodd" d="M625 74C627.761 74 630 71.7614 630 69C630 66.2386 627.761 64 625 64C622.239 64 620 66.2386 620 69C620 71.7614 622.239 74 625 74Z" class="jsx-2180138831" clip-rule="evenodd"/><defs class="jsx-2180138831"><filter id="ipad-filter-1" width="76" height="88" x="587" y="1691" class="jsx-2180138831" color-interpolation-filters="sRGB" filterUnits="userSpaceOnUse"><feFlood class="jsx-2180138831" flood-opacity="0" result="BackgroundImageFix"/><feBlend class="jsx-2180138831" in="SourceGraphic" in2="BackgroundImageFix" mode="normal" result="shape"/><feColorMatrix class="jsx-2180138831" in="SourceAlpha" result="hardAlpha" type="matrix" values="0 0 0 0 0 0 0 0 0 0 0 0 0 0 0 0 0 0 127 0"/><feOffset class="jsx-2180138831" dy="12"/><feGaussianBlur class="jsx-2180138831" stdDeviation="6.5"/><feComposite class="jsx-2180138831" in2="hardAlpha" k2="-1" k3="1" operator="arithmetic"/><feColorMatrix class="jsx-2180138831" type="matrix" values="0 0 0 0 0 0 0 0 0 0 0 0 0 0 0 0 0 0 0.068699 0"/><feBlend class="jsx-2180138831" in2="shape" mode="normal" result="effect1_innerShadow"/></filter><filter id="ipad-filter-2" width="20" height="21" x="615" y="59" class="jsx-2180138831" color-interpolation-filters="sRGB" filterUnits="userSpaceOnUse"><feFlood class="jsx-2180138831" flood-opacity="0" result="BackgroundImageFix"/><feBlend class="jsx-2180138831" in="SourceGraphic" in2="BackgroundImageFix" mode="normal" result="shape"/><feColorMatrix class="jsx-2180138831" in="SourceAlpha" result="hardAlpha" type="matrix" values="0 0 0 0 0 0 0 0 0 0 0 0 0 0 0 0 0 0 127 0"/><feOffset class="jsx-2180138831" dy="1"/><feGaussianBlur class="jsx-2180138831" stdDeviation="1.5"/><feComposite class="jsx-2180138831" in2="hardAlpha" k2="-1" k3="1" operator="arithmetic"/><feColorMatrix class="jsx-2180138831" type="matrix" values="0 0 0 0 0 0 0 0 0 0 0 0 0 0 0 0 0 0 0.0526778 0"/><feBlend class="jsx-2180138831" in2="shape" mode="normal" result="effect1_innerShadow"/></filter><linearGradient id="ipad-gradient-1" x1="0" x2="0" y1="0" y2="1794" class="jsx-2180138831" gradientUnits="userSpaceOnUse"><stop class="jsx-2180138831" stop-opacity=".01"/><stop class="jsx-2180138831" offset="1" stop-opacity=".626"/></linearGradient><linearGradient id="ipad-gradient-2" x1="667.489" x2="667.489" y1="1785.93" y2="1700.95" class="jsx-2180138831" gradientUnits="userSpaceOnUse"><stop class="jsx-2180138831" stop-color="#fff" stop-opacity=".349"/><stop class="jsx-2180138831" offset="1" stop-opacity=".348"/></linearGradient></defs></svg>